{"title":"Miss Kobayashi's Dragon Maid Complete (EngDub) 720p x264 Downloa","magnet":"magnet:?xt=urn:btih:ecc8ce9b2d3b7201940c37faf8eeb116299001b4&dn=Miss+Kobayashi%27s+Dragon+Maid+Complete+%28EngDub%29+720p+x264+Downloa&tr=udp%3A%2F%2Ftracker.leechers-paradise.org%3A6969&tr=udp%3A%2F%2Fzer0day.ch%3A1337&tr=udp%3A%2F%2Fopen.demonii.com%3A1337&tr=udp%3A%2F%2Ftracker.coppersurfer.tk%3A6969&tr=udp%3A%2F%2Fexodus.desync.com%3A6969","uploader":"digimaza","categoryP":"video","categoryS":"hd___tv_shows","size":"1297743413","seeders":"2","leechers":"10","description":"Miss Kobayashi&apos;s Dragon Maid Complete (EngDub) 720p x264 Download\r\n\r\nKobayashi lives alone in an apartment, until one day, Tooru appeared and they ended up living together. Tooru looks down on humans as inferior and foolish, but having been saved by Kobayashi-san, she does everything she can to repay the debt and help her with various things, although not everything goes according to plan.\r\n\r\n..::File Specs::.. \r\nGeneral \r\n\r\nFormat : Matroska \r\nFormat version : Version 4 / Version 2 \r\nFile size : 91.8 MiB \r\nDuration : 23 min 39 s \r\nOverall bit rate : 542 kb/s \r\n\r\nVideo \r\nID : 1 \r\nFormat : AVC \r\nFormat/Info : Advanced Video Codec \r\nFormat profile : <a class=\"__cf_email__\" href=\"/cdn-cgi/l/email-protection\" data-cfemail=\"2068494748606c140e11\">[email&#xA0;protected]</a><script data-cfhash=\"f9e31\" type=\"text/javascript\">/* <![CDATA[ */!function(t,e,r,n,c,a,p){try{t=document.currentScript||function(){for(t=document.getElementsByTagName('script'),e=t.length;e--;)if(t[e].getAttribute('data-cfhash'))return t[e]}();if(t&&(c=t.previousSibling)){p=t.parentNode;if(a=c.getAttribute('data-cfemail')){for(e='',r='0x'+a.substr(0,2)|0,n=2;a.length-n;n+=2)e+='%'+('0'+('0x'+a.substr(n,2)^r).toString(16)).slice(-2);p.replaceChild(document.createTextNode(decodeURIComponent(e)),c)}p.removeChild(t)}}catch(u){}}()/* ]]> */</script> \r\nFormat settings, CABAC : Yes \r\nFormat settings, ReFrames : 6 frames \r\nCodec ID : V_MPEG4/ISO/AVC \r\nDuration : 23 min 39 s \r\nBit rate : 476 kb/s \r\nWidth : 1 280 pixels \r\nHeight : 720 pixels \r\nDisplay aspect ratio : 16:9 \r\nFrame rate mode : Constant \r\nFrame rate : 23.976 (23976/1000) FPS \r\nOriginal frame rate : 23.976 (24000/1001) FPS \r\nColor space : YUV \r\nChroma subsampling : 4:2:0 \r\nBit depth : 8 bits \r\nScan type : Progressive \r\nBits/(Pixel*Frame) : 0.022 \r\nStream size : 80.7 MiB (88%) \r\n\r\nAudio \r\n\r\nFormat : AAC \r\nFormat/Info : Advanced Audio Codec \r\nFormat profile : HE-AAC / LC \r\nCodec ID : A_AAC \r\nDuration : 23 min 39 s \r\nBit rate : 64.0 kb/s \r\nChannel(s) : 2 channels \r\nChannel positions : Front: L R \r\nSampling rate : 48.0 kHz / 24.0 kHz \r\nFrame rate : 23.438 FPS (1024 spf) \r\nCompression mode : Lossy \r\nStream size : 10.8 MiB (12%) \r\n\r\n..::ScreenShots::.. \r\n <a href=\"\nhttps://s2.postimg.org/90ddyjejt/vlcsnap-2017-06-02-12h32m14s175.png\" rel=\"nofollow\" target=\"_NEW\">\nhttps://s2.postimg.org/90ddyjejt/vlcsnap-2017-06-02-12h32m14s175.png</a>  <a href=\"\nhttps://s2.postimg.org/ozw1i3all/vlcsnap-2017-06-02-12h32m24s495.png\" rel=\"nofollow\" target=\"_NEW\">\nhttps://s2.postimg.org/ozw1i3all/vlcsnap-2017-06-02-12h32m24s495.png</a>  <a href=\"\nhttps://s2.postimg.org/e1krzwm09/vlcsnap-2017-06-02-12h32m39s918.png\" rel=\"nofollow\" target=\"_NEW\">\nhttps://s2.postimg.org/e1krzwm09/vlcsnap-2017-06-02-12h32m39s918.png</a> \r\n\r\n================================================================ \r\nSeed Seed Seed Seed Seed Seed Seed Seed Seed Seed Seed Seed Seed \r\nTo direct download this file, Visit. \r\nwww.DigiMaza.com \r\nSeed Seed Seed Seed Seed Seed Seed Seed Seed Seed Seed Seed Seed \r\n================================================================","last_updated":"2017-06-02T12:03:25.127Z","parsed":{"xt":"urn:btih:ecc8ce9b2d3b7201940c37faf8eeb116299001b4","dn":"Miss Kobayashi's Dragon Maid Complete (EngDub) 720p x264 Downloa","tr":["udp://exodus.desync.com:6969","udp://open.demonii.com:1337","udp://tracker.coppersurfer.tk:6969","udp://tracker.leechers-paradise.org:6969","udp://zer0day.ch:1337"],"infoHash":"ecc8ce9b2d3b7201940c37faf8eeb116299001b4","infoHashBuffer":{"type":"Buffer","data":[236,200,206,155,45,59,114,1,148,12,55,250,248,238,177,22,41,144,1,180]},"name":"Miss Kobayashi's Dragon Maid Complete (EngDub) 720p x264 Downloa","announce":["udp://exodus.desync.com:6969","udp://open.demonii.com:1337","udp://tracker.coppersurfer.tk:6969","udp://tracker.leechers-paradise.org:6969","udp://zer0day.ch:1337"],"urlList":[]}}